HIERARCHY
ROOT hip
{
  OFFSET 0 0 0
  CHANNELS 6 Xposition Yposition Zposition Zrotation Yrotation Xrotation
  JOINT abdomen
  {
    OFFSET 0 20.6881 -0.73152
    CHANNELS 3 Zrotation Xrotation Yrotation
    JOINT chest
    {
      OFFSET 0 11.7043 -0.48768
      CHANNELS 3 Zrotation Xrotation Yrotation
      JOINT neck
      {
        OFFSET 0 22.1894 -2.19456
        CHANNELS 3 Zrotation Xrotation Yrotation
        JOINT head
        {
          OFFSET -0.24384 7.07133 1.2192
          CHANNELS 3 Zrotation Xrotation Yrotation
          JOINT leftEye
          {
            OFFSET 4.14528 8.04674 8.04672
            CHANNELS 3 Zrotation Xrotation Yrotation
            End Site
            {
              OFFSET 1 0 0
            }
          }
          JOINT rightEye
          {
            OFFSET -3.6576 8.04674 8.04672
            CHANNELS 3 Zrotation Xrotation Yrotation
            End Site
            {
              OFFSET 1 0 0
            }
          }
        }
      }
      JOINT rCollar
      {
        OFFSET -2.68224 19.2634 -4.8768
        CHANNELS 3 Zrotation Xrotation Yrotation
        JOINT rShldr
        {
          OFFSET -8.77824 -1.95073 1.46304
          CHANNELS 3 Zrotation Xrotation Yrotation
          JOINT rForeArm
          {
            OFFSET -28.1742 -1.7115 0.48768
            CHANNELS 3 Zrotation Xrotation Yrotation
            JOINT rHand
            {
              OFFSET -22.5879 0.773209 7.07136
              CHANNELS 3 Zrotation Xrotation Yrotation
              JOINT rThumb1
              {
                OFFSET -1.2192 -0.487915 3.41376
                CHANNELS 3 Zrotation Xrotation Yrotation
                JOINT rThumb2
                {
                  OFFSET -3.37035 -0.52449 3.41376
                  CHANNELS 3 Zrotation Xrotation Yrotation
                  End Site
                  {
                    OFFSET -1.78271 -1.18214 1.43049
                  }
                }
              }
              JOINT rIndex1
              {
                OFFSET -7.75947 0.938293 5.60832
                CHANNELS 3 Zrotation Xrotation Yrotation
                JOINT rIndex2
                {
                  OFFSET -2.54057 -0.884171 1.56538
                  CHANNELS 3 Zrotation Xrotation Yrotation
                  End Site
                  {
                    OFFSET -1.62519 -0.234802 1.16502
                  }
                }
              }
              JOINT rMid1
              {
                OFFSET -8.24714 1.18213 3.41376
                CHANNELS 3 Zrotation Xrotation Yrotation
                JOINT rMid2
                {
                  OFFSET -3.10165 -0.590103 1.0647
                  CHANNELS 3 Zrotation Xrotation Yrotation
                  End Site
                  {
                    OFFSET -2.48547 -0.328903 0.83742
                  }
                }
              }
              JOINT rRing1
              {
                OFFSET -8.82822 0.546677 1.51678
                CHANNELS 3 Zrotation Xrotation Yrotation
                JOINT rRing2
                {
                  OFFSET -2.60934 -0.819778 -0.0198488
                  CHANNELS 3 Zrotation Xrotation Yrotation
                  End Site
                  {
                    OFFSET -2.33842 -0.294052 0.168128
                  }
                }
              }
              JOINT rPinky1
              {
                OFFSET -8.27202 -0.0477905 -0.4584
                CHANNELS 3 Zrotation Xrotation Yrotation
                JOINT rPinky2
                {
                  OFFSET -1.82734 -0.647385 -0.700984
                  CHANNELS 3 Zrotation Xrotation Yrotation
                  End Site
                  {
                    OFFSET -1.69225 -0.51767 -0.607171
                  }
                }
              }
            }
          }
        }
      }
      JOINT lCollar
      {
        OFFSET 2.68224 19.2634 -4.8768
        CHANNELS 3 Zrotation Xrotation Yrotation
        JOINT lShldr
        {
          OFFSET 8.77824 -1.95073 1.46304
          CHANNELS 3 Zrotation Xrotation Yrotation
          JOINT lForeArm
          {
            OFFSET 28.1742 -1.7115 0.48768
            CHANNELS 3 Zrotation Xrotation Yrotation
            JOINT lHand
            {
              OFFSET 22.5879 0.773209 7.07136
              CHANNELS 3 Zrotation Xrotation Yrotation
              JOINT lThumb1
              {
                OFFSET 1.2192 -0.487915 3.41376
                CHANNELS 3 Zrotation Xrotation Yrotation
                JOINT lThumb2
                {
                  OFFSET 3.37035 -0.52449 3.41376
                  CHANNELS 3 Zrotation Xrotation Yrotation
                  End Site
                  {
                    OFFSET 1.78271 -1.18214 1.43049
                  }
                }
              }
              JOINT lIndex1
              {
                OFFSET 7.75947 0.938293 5.60832
                CHANNELS 3 Zrotation Xrotation Yrotation
                JOINT lIndex2
                {
                  OFFSET 2.54057 -0.884171 1.56538
                  CHANNELS 3 Zrotation Xrotation Yrotation
                  End Site
                  {
                    OFFSET 1.62519 -0.234802 1.16502
                  }
                }
              }
              JOINT lMid1
              {
                OFFSET 8.24714 1.18213 3.41376
                CHANNELS 3 Zrotation Xrotation Yrotation
                JOINT lMid2
                {
                  OFFSET 3.10165 -0.590103 1.0647
                  CHANNELS 3 Zrotation Xrotation Yrotation
                  End Site
                  {
                    OFFSET 2.48547 -0.328903 0.83742
                  }
                }
              }
              JOINT lRing1
              {
                OFFSET 8.82822 0.546677 1.51678
                CHANNELS 3 Zrotation Xrotation Yrotation
                JOINT lRing2
                {
                  OFFSET 2.60934 -0.819778 -0.0198488
                  CHANNELS 3 Zrotation Xrotation Yrotation
                  End Site
                  {
                    OFFSET 2.33842 -0.294052 0.168128
                  }
                }
              }
              JOINT lPinky1
              {
                OFFSET 8.27202 -0.0477905 -0.4584
                CHANNELS 3 Zrotation Xrotation Yrotation
                JOINT lPinky2
                {
                  OFFSET 1.82734 -0.647385 -0.700984
                  CHANNELS 3 Zrotation Xrotation Yrotation
                  End Site
                  {
                    OFFSET 1.69225 -0.51767 -0.607171
                  }
                }
              }
            }
          }
        }
      }
    }
  }
  JOINT rButtock
  {
    OFFSET -8.77824 4.35084 1.2192
    CHANNELS 3 Zrotation Xrotation Yrotation
    JOINT rThigh
    {
      OFFSET 0 -1.70687 -2.19456
      CHANNELS 3 Zrotation Xrotation Yrotation
      JOINT rShin
      {
        OFFSET 0 -36.8199 0.73152
        CHANNELS 3 Zrotation Xrotation Yrotation
        JOINT rFoot
        {
          OFFSET 0.73152 -45.1104 -5.12064
          CHANNELS 3 Zrotation Xrotation Yrotation
          End Site
          {
            OFFSET -1.1221 -3.69964 12.103
          }
        }
      }
    }
  }
  JOINT lButtock
  {
    OFFSET 8.77824 4.35084 1.2192
    CHANNELS 3 Zrotation Xrotation Yrotation
    JOINT lThigh
    {
      OFFSET 0 -1.70687 -2.19456
      CHANNELS 3 Zrotation Xrotation Yrotation
      JOINT lShin
      {
        OFFSET 0 -36.8199 0.73152
        CHANNELS 3 Zrotation Xrotation Yrotation
        JOINT lFoot
        {
          OFFSET -0.73152 -45.1104 -5.12064
          CHANNELS 3 Zrotation Xrotation Yrotation
          End Site
          {
            OFFSET 1.1221 -3.69964 12.103
          }
        }
      }
    }
  }
}
MOTION
Frames:	4
Frame Time:	0.03333
-3.414290040200285 53.4716010093689 -15.947740104456898 -16.67270008477081 -28.232600594626046 12.618000118901408 12.17539959181635 10.480199573785253 2.4009000722752805 1.9729199919954585 -7.314200280261949 0.8185569774475966 -0.016686200500614083 13.24719970656392 7.187880200430795 3.8597898457325113 -24.77020011942816 15.076599281407429 -0.0 0.0 0.0 -0.0 0.0 0.0 -2.716290081356034e-13 -3.326780071447998e-13 6.588349939208831e-13 106.958003005975 45.84230018068506 -57.82569973983776 -26.989200514718366 -44.044300693003386 91.53219835041962 -5.0916802031150725 -52.090000572995365 -10.397000185731681 -1.5396400278251792e-09 3.0779599266728834e-09 3.0249100139519134e-10 -2.6669799814602204e-09 5.242290015891299e-09 4.677110021042587e-10 -1.5396400278251792e-09 3.0779599266728834e-09 3.0248300031232075e-10 7.730910121524428 5.474879855648998 0.41731399283890674 -1.5396400278251792e-09 3.0779599266728834e-09 3.0248700085375605e-10 2.90554006136521 0.9651829962377875 0.10290200252939893 -1.5396299891994657e-09 3.0779599266728834e-09 3.0248898870043195e-10 10.278599710243157 0.7318009818271524 0.025912300303053633 -1.5396400278251792e-09 3.0779599266728834e-09 3.0249599585996456e-10 2.221669932038622 -0.7334870246959406 -0.20891999872313852 -2.716670082319716e-13 -3.3267900203876603e-13 6.586189806016815e-13 -45.8227009528617 13.33170024565438 -38.764899143852865 12.328100423543033 -5.681379953033756 -22.246600607912068 2.808400043772231 42.08529998620618 -7.291740056950009 -2.0677100063969116e-09 -5.151060178116205e-09 -2.992109997141485e-09 -3.6593700932764365e-09 -8.434699817360636e-09 -5.086160164702272e-09 -2.0677100063969116e-09 -5.151080056582965e-09 -2.992100057908105e-09 -7.730910121524428 5.474879855648998 -0.41731399283890674 -2.0677100063969116e-09 -5.1510498413134905e-09 -2.992109997141485e-09 -2.90554006136521 0.9651829962377875 -0.10290200252939893 -2.0677100063969116e-09 -5.151060178116205e-09 -2.992109997141485e-09 -10.278599710243157 0.7318009818271524 -0.025912300303053633 -2.0677000671635322e-09 -5.151060178116205e-09 -2.9921199363748644e-09 -2.221669932038622 -0.7334870246959406 0.20891999872313852 -2.0321699793705798e-16 0.0 -3.882510030490358e-19 -10.311699660734684 8.862830415120097 -3.0792699783293043 0.031634301285391735 32.24910016624121 2.211440016209236 -7.853930366212819 -16.34990022195413 -30.844499084184772 2.0321699793705798e-16 0.0 3.882510030490358e-19 77.2437021539414 -54.02259918355589 65.22819729059505 2.7332899475734815 72.79890191004225 -2.66884006912183 -0.6222490164083792 2.037080014294208 -5.38009988185767
-3.3822600407802383 53.445202112197876 -15.912040103285108 -16.667200074941658 -28.30890063784426 12.602699641386932 12.129800395143699 10.482100073921808 2.3951800022888063 1.9936400111729269 -7.304289675776261 0.8184569792092794 -0.06868300158157968 13.309299786497677 7.174440095691502 3.9133398094858807 -24.867699362282803 15.069999611121904 -0.0 0.0 0.0 -0.0 0.0 0.0 -4.687470099423012e-13 -7.589459808801176e-13 -7.448140216698405e-13 107.03799818153418 45.847798482966915 -57.92690265276984 -26.984200816245917 -44.05780056189792 91.5588975598852 -5.052970105994025 -51.95980009194199 -10.347899663335753 2.913469987503629e-09 -4.720850002945411e-09 1.3711799861228714e-10 5.0163899269323475e-09 -7.958419705198179e-09 3.4494198896910215e-10 2.913469987503629e-09 -4.720850002945411e-09 1.37107003335361e-10 7.730910121524428 5.474879855648998 0.41731399283890674 2.913469987503629e-09 -4.720850002945411e-09 1.3711500441823156e-10 2.90554006136521 0.9651829962377875 0.10290200252939893 2.9134799267370087e-09 -4.720850002945411e-09 1.3711500441823156e-10 10.278599710243157 0.7318009818271524 0.025912300303053633 2.913469987503629e-09 -4.720850002945411e-09 1.3712100523038448e-10 2.221669932038622 -0.7334870246959406 -0.20891999872313852 -4.68765015096519e-13 -7.589489898277228e-13 -7.449009899619117e-13 -45.94419977291248 13.18889977312963 -38.77089946503872 12.266000343609276 -5.636909872008272 -22.12580017470393 2.879930053628836 42.49569873267557 -7.398029753266455 -2.573859900280999e-10 2.063290069069949e-08 6.229499998054749e-09 -2.3998500142922885e-10 3.512560062442768e-08 1.074249995742785e-08 -2.573880027228593e-10 2.063290069069949e-08 6.229499998054749e-09 -7.730910121524428 5.474879855648998 -0.41731399283890674 -2.573880027228593e-10 2.063290069069949e-08 6.229499998054749e-09 -2.90554006136521 0.9651829962377875 -0.10290200252939893 -2.573910093409566e-10 2.063290069069949e-08 6.22949005882137e-09 -10.278599710243157 0.7318009818271524 -0.025912300303053633 -2.573800016399887e-10 2.063290069069949e-08 6.22948011958799e-09 -2.221669932038622 -0.7334870246959406 0.20891999872313852 -2.0321699793705798e-16 0.0 -3.882510030490358e-19 -10.392499944842289 8.903260012364695 -3.0117300796084563 0.03173449962690729 32.201801106238875 2.2120099101181085 -7.815140014369025 -16.278200311141923 -30.855400066100113 2.0321699793705798e-16 0.0 3.882510030490358e-19 77.21769962377117 -54.03990005272353 65.1727020035887 2.7540199985912936 72.90780244616893 -2.6968099072164438 -0.6253589936365563 1.977840076075395 -5.250890205120777
-3.3499700393804233 53.41089963912964 -15.876240104262251 -16.729199409585156 -28.325400667331717 12.613900297852107 12.162699708828358 10.49339976812995 2.3630200565818016 2.0055900674560987 -7.300940321762016 0.8116550179304458 -0.10389099924698224 13.362099710102814 7.167569779160115 3.948470033708195 -24.953699981669725 15.06810081853264 -0.0 0.0 0.0 -0.0 0.0 0.0 -3.0017700518207245e-13 -5.993960002717974e-13 -7.530059785876719e-13 107.09899860101157 45.85769884216885 -58.01699967811148 -26.98020003293958 -44.068500053232746 91.58020091990647 -5.044329916693959 -51.930601033240194 -10.336899643677446 2.201440006103062e-09 -3.821339840429966e-09 -4.5979399893607237e-11 3.797690030957273e-09 -6.471459900308416e-09 -2.07335999622464e-12 2.201440006103062e-09 -3.821339840429966e-09 -4.599250104560569e-11 7.730910121524428 5.474879855648998 0.41731399283890674 2.2014300668696822e-09 -3.821339840429966e-09 -4.5982599084351284e-11 2.90554006136521 0.9651829962377875 0.10290200252939893 2.201440006103062e-09 -3.821339840429966e-09 -4.598180083967049e-11 10.278599710243157 0.7318009818271524 0.025912300303053633 2.2014300668696822e-09 -3.821339840429966e-09 -4.597399854146752e-11 2.221669932038622 -0.7334870246959406 -0.20891999872313852 -3.002200040139782e-13 -5.993999798476622e-13 -7.530599940503255e-13 -46.06270013991761 13.064900250068987 -38.78589856045607 12.21609983530681 -5.601310072280519 -22.02890028094896 2.8920199153465815 42.56360105830925 -7.4158198347334 9.12084000910984e-12 1.511609978323642e-08 4.703719933000384e-09 1.676080009208437e-10 2.5699699228778353e-08 8.103960297144607e-09 9.120309657828727e-12 1.511609978323642e-08 4.703719933000384e-09 -7.730910121524428 5.474879855648998 -0.41731399283890674 9.121649901329753e-12 1.511609978323642e-08 4.703719933000384e-09 -2.90554006136521 0.9651829962377875 -0.10290200252939893 9.117080183482973e-12 1.511609978323642e-08 4.703719933000384e-09 -10.278599710243157 0.7318009818271524 -0.025912300303053633 9.128289775128873e-12 1.511609978323642e-08 4.703709993767004e-09 -2.221669932038622 -0.7334870246959406 0.20891999872313852 -2.0321699793705798e-16 0.0 -3.882510030490358e-19 -10.419100116564904 8.941329779251053 -2.9779799804853075 0.03209860073650054 32.162100631688176 2.212749918425997 -7.782549766744309 -16.247199790046526 -30.82650153572179 2.0321699793705798e-16 0.0 3.882510030490358e-19 77.25879687200712 -54.10239969872373 65.10980279152206 2.776119929424516 73.02560271878414 -2.7279899342209633 -0.625365983908285 1.9397600639052812 -5.097619906372045
-3.3088600406699697 53.39239835739136 -15.857940104615409 -16.826200048630383 -28.337300564413173 12.647700342733561 12.274199985707877 10.514200255473575 2.304440085391541 2.008769947401563 -7.304159902182031 0.7981490125378331 -0.1223329969237993 13.405800114186201 7.167249614042771 3.965230037270937 -25.02820027004164 15.070800450802087 -0.0 0.0 0.0 -0.0 0.0 0.0 2.3408200103904895e-13 1.4597000555649492e-13 6.3425897757315e-13 107.14099743421798 45.87200125829086 -58.096100098889394 -26.977199872346656 -44.076399167007864 91.59610160029426 -5.065590161146093 -52.0023009440524 -10.363900235240154 -3.675740010652594e-09 5.776480077416504e-09 -2.468019985791935e-10 -6.3230798681701095e-09 9.703170225699256e-09 -5.733339928248137e-10 -3.675740010652594e-09 5.776490016649884e-09 -2.4681400020349934e-10 7.730910121524428 5.474879855648998 0.41731399283890674 -3.6757499498859734e-09 5.776480077416504e-09 -2.4680500519729083e-10 2.90554006136521 0.9651829962377875 0.10290200252939893 -3.675740010652594e-09 5.776490016649884e-09 -2.4680100465585553e-10 10.278599710243157 0.7318009818271524 0.025912300303053633 -3.6757499498859734e-09 5.776490016649884e-09 -2.467890030315497e-10 2.221669932038622 -0.7334870246959406 -0.20891999872313852 2.3396999053787684e-13 1.4597000555649492e-13 6.341409977081805e-13 -46.17830109162008 12.95969996892516 -38.809800807456526 12.178499643925889 -5.574610009041293 -21.955899219099862 2.843800060466761 42.289099170661025 -7.344370079599543 -1.2681900225649827e-09 -2.170150027202292e-08 -7.569429916268487e-09 -2.436600081232427e-09 -3.6712398438337915e-08 -1.3001900006629891e-08 -1.2681900225649827e-09 -2.170150027202292e-08 -7.569440253071201e-09 -7.730910121524428 5.474879855648998 -0.41731399283890674 -1.2681799839392694e-09 -2.170150027202292e-08 -7.569440253071201e-09 -2.90554006136521 0.9651829962377875 -0.10290200252939893 -1.2681900225649827e-09 -2.170150027202292e-08 -7.569440253071201e-09 -10.278599710243157 0.7318009818271524 -0.025912300303053633 -1.2681799839392694e-09 -2.170150027202292e-08 -7.569449794735246e-09 -2.221669932038622 -0.7334870246959406 0.20891999872313852 -2.0321699793705798e-16 0.0 -3.882510030490358e-19 -10.391400284385917 8.977039715779172 -2.9780499899243003 0.032726501227519 32.13010119542667 2.2136399774522144 -7.7561596233386725 -16.25679962092498 -30.757800077955217 2.0321699793705798e-16 0.0 3.882510030490358e-19 77.36680265335254 -54.210200574394044 65.03949965439512 2.799690058476584 73.15220027505032 -2.7624800416520006 -0.6223910096379214 1.9228199141031803 -4.920309903065806
